<?xml version="1.0" encoding="UTF-8"?>
<!DOCTYPE svg PUBLIC "-//W3C//DTD SVG 1.1//EN" "http://www.w3.org/Graphics/SVG/1.1/DTD/svg11.dtd">
<!-- Creator: CorelDRAW -->
<svg xmlns="http://www.w3.org/2000/svg" xml:space="preserve" width="2048px" height="2048px" style="shape-rendering:geometricPrecision; text-rendering:geometricPrecision; image-rendering:optimizeQuality; fill-rule:evenodd; clip-rule:evenodd"
viewBox="0 0 2048 2048"
 xmlns:xlink="http://www.w3.org/1999/xlink">
 <defs>
  <style type="text/css">
   <![CDATA[
    .fil0 {fill:none}
    .fil3 {fill:#424242}
    .fil1 {fill:#616161}
    .fil2 {fill:#757575}
    .fil4 {fill:white}
   ]]>
  </style>
 </defs>
 <g id="Layer_x0020_1">
  <metadata id="CorelCorpID_0Corel-Layer"/>
  <rect class="fil0" width="2048" height="2048"/>
  <rect class="fil0" x="255.999" y="255.999" width="1536" height="1536"/>
  <rect class="fil0" x="255.999" y="255.999" width="1536" height="1536"/>
  <rect class="fil0" x="255.999" y="255.999" width="1536" height="1536"/>
  <g id="_342375896">
   <path id="_342376088" class="fil1" d="M1024 832.068l-295.464 0 -191.76 0 -88.5331 0c-53.0599,0 -96.1194,43.0937 -96.1194,96.1194l0 767.691c0,52.9229 43.0595,96.1182 96.1194,96.1182l575.757 0 0 -959.929z"/>
   <path id="_342375920" class="fil2" d="M1599.76 832.068l-574.713 0 -1.0441 0 0 959.929 0.219685 0 575.537 0c53.0256,0 96.1194,-43.1953 96.1194,-96.1182l0 -767.691c0,-53.0256 -43.0937,-96.1194 -96.1194,-96.1194z"/>
  </g>
  <path class="fil2" d="M728.536 832.068l0 -88.6701c0,-163.055 132.579,-295.158 295.77,-295.158 107.241,0 200.502,57.5823 252.064,143.871l1.93937 -1.46221c17.2784,24.3862 44.9977,41.7674 77.2749,41.7674 53.0256,0 96.1182,-43.1965 96.1182,-96.1194 0,-12.7205 -2.78858,-25.3051 -7.44804,-36.5965l-0.951969 -1.80354c-4.21772,-9.82914 -10.3406,-18.3319 -17.4142,-25.7811 -87.5824,-129.825 -233.868,-216.114 -401.582,-216.114 -269.614,0 -487.53,218.393 -487.53,487.395l0 88.6701 191.76 0z"/>
  <path class="fil3" d="M1100.87 1331.85l0 120.796c0,42.3366 -34.5331,76.8697 -76.8697,76.8697 -42.3366,0 -76.8697,-34.5331 -76.8697,-76.8697l0 -120.796c-33.7193,-24.4087 -54.2221,-63.7004 -54.2221,-106.2 0,-72.3898 58.702,-131.092 131.092,-131.092 72.3898,0 131.092,58.702 131.092,131.092 0,42.4996 -20.5028,81.7914 -54.2221,106.2z"/>
  <path class="fil4" d="M1024 1124.55c55.8319,0 101.092,45.2599 101.092,101.092 0,38.915 -21.991,72.6886 -54.2221,89.5855l0 137.411c0,25.7788 -21.091,46.8697 -46.8697,46.8697l0 0c-25.7788,0 -46.8697,-21.091 -46.8697,-46.8697l0 -137.411c-32.2311,-16.8969 -54.2221,-50.6705 -54.2221,-89.5855 0,-55.8319 45.2599,-101.092 101.092,-101.092z"/>
 </g>
</svg>
